<svg width="327" height="281" viewBox="0 0 327 281" fill="none" xmlns="http://www.w3.org/2000/svg">
<g opacity="0.8">
<path d="M108 85.5C125.429 51.205 132.757 30.8368 149.5 1C171.609 27.6956 184.123 43.6908 211.5 71.5C198.23 113.506 192.203 143.411 181.5 203C152.741 154.531 143.399 124.485 108 85.5Z" fill="#A73333" stroke="#561919" stroke-opacity="0.85"/>
<path d="M129 76.5049C137.714 58.7113 141.765 48.2315 151.454 33C163.475 45.6761 170.821 53.5822 185 69.297C173.803 90.3268 170.586 105.824 168.768 137C158.024 114.442 153.014 99.9421 129 76.5049Z" fill="#F2C43B" stroke="#F2C43B"/>
<path d="M2.5 97C76.8635 123.941 113.651 149.157 169.386 193.426C174.324 195.829 179.238 198.245 184.108 200.675C233.58 134.415 263.159 98.4734 326 53.5C301.567 124.568 275.594 168.871 237.974 229.852C263.531 245.328 284.778 261.574 297.5 279L231.418 240.463C228.197 245.67 224.893 251.007 221.5 256.5L228.636 238.84L42 130L65.139 142.148C37.9164 127.323 15.3813 112.435 2.5 97Z" fill="#4CA9CA"/>
<path d="M182 203.5C118.854 152.853 82.3272 125.921 2.5 97C52.2053 156.559 245.653 207.98 297.5 279L42 130L182 203.5ZM182 203.5C232.751 135.428 262.271 99.1085 326 53.5C298.154 134.495 268.308 180.726 221.5 256.5L271 134L182 203.5Z" stroke="#1B6B88"/>
<path d="M189.446 238.52C197.634 240.654 202.27 250.771 199.526 261.299C196.782 271.826 187.797 278.393 179.609 276.259C171.42 274.124 166.784 264.007 169.529 253.479C172.273 242.952 181.257 236.385 189.446 238.52Z" fill="#B475E4" stroke="#4B2668"/>
<ellipse cx="186.5" cy="250" rx="5.5" ry="7" fill="#7D94C2"/>
</g>
</svg>
