<svg width="440" height="397" viewBox="0 0 440 397" fill="none" xmlns="http://www.w3.org/2000/svg">
<g opacity="0.8">
<path d="M57.9744 41.8074C58.4805 42.0604 58.9865 42.3135 74.6823 48.6431C90.378 54.9728 121.248 67.3714 137.657 74.1381C158.398 83.4582 164.54 86.5252 167.346 88.1853C168.634 88.8332 169.646 89.0862 171.456 90.1137" stroke="#EFEC21" stroke-width="3" stroke-linecap="round"/>
<path d="M58.7412 40.2739C59.2472 41.286 65.3277 49.1454 76.8024 62.6673C86.8495 74.5071 95.2699 79.8774 100.108 83.186C111.127 91.8926 113.941 94.4536 119.772 99.1424C124.844 103.325 134.206 111.169 144.619 120.018" stroke="#EFEC21" stroke-width="3" stroke-linecap="round"/>
<path d="M202.123 133.313C202.016 133.42 201.9 133.56 201.771 133.731C201.761 133.715 201.752 133.7 201.743 133.685C201.375 133.053 202.308 133.129 202.123 133.313Z" fill="#BBC883" fill-opacity="0.8"/>
<path d="M144.619 120.018C144.113 120.018 142.334 120.777 138.642 122.939C133.442 125.985 126.516 132.754 114.811 147.115C106.92 156.797 97.0335 172.863 90.93 182.59C79.6806 200.517 78.4317 207.92 77.0209 212.524C76.6986 213.576 76.1314 214.315 76.3768 214.2C77.9059 213.483 81.4605 210.005 92.2565 203.143C100.156 198.122 113.427 190.713 126.658 183.514C139.888 176.314 152.793 169.735 160.073 165.84C173.625 158.589 182.421 151.731 186.902 148.399C191.097 145.282 193.677 142.775 196.748 139.839C200.115 136.618 201.352 134.08 202.123 133.313C202.308 133.129 201.375 133.053 201.743 133.685C202.111 134.318 203.629 135.583 217.696 144.838C231.762 154.093 258.33 171.299 272.397 180.416C286.463 189.533 287.222 190.039 288.004 190.56" stroke="#EFEC21" stroke-width="3" stroke-linecap="round"/>
<path d="M172.606 89.3354C172.859 86.5367 178.847 76.1279 186.12 60.5242C189.77 52.6941 196.468 45.4265 203.227 38.9129C211.073 31.3519 217.953 34.4004 223.956 34.0132C229.731 33.6408 235.849 32.8669 239.173 32.4797C245.411 31.753 256.506 26.5027 266.884 19.9776C273.552 15.785 277.76 13.4524 281.092 11.2709C281.813 10.7985 282.622 10.6307 282.886 11.0064C285.201 14.2937 279.585 21.5801 276.641 26.4567C274.42 30.1349 273.19 33.3576 268.229 38.8324C265.333 42.0292 260.247 47.5735 251.441 54.9958C242.635 62.4181 230.236 71.5273 223.343 76.726C213.164 84.4029 211.335 87.8057 210.438 89.3354C208.284 93.0081 218.719 95.2204 223.324 97.5168C226.814 99.2577 230.482 100.588 233.679 102.374C237.379 104.442 242.474 106.967 255.624 114.493C261.601 117.914 267.516 122.287 271.381 126.14C276.998 131.741 285.428 139.677 286.977 144.911C289.867 154.676 290.55 158.847 291.198 163.578C291.759 167.673 293.372 171.115 294.261 174.447C295.251 178.154 298.218 181.344 300.901 186.324C302.725 189.708 303.079 192.845 304.866 195.916C306.722 199.106 308.952 202.046 312.016 204.354C314.017 205.862 316.367 206.655 316.632 207.678C318.11 213.401 302.113 203.871 297.217 202.065C294.209 200.956 292.866 197.476 290.569 195.678C289.799 194.409 289.285 192.868 288.648 191.338C288.265 190.568 287.759 189.809 287.238 189.027" stroke="#EFEC21" stroke-width="3" stroke-linecap="round"/>
<path d="M192.159 151.467C192.159 151.705 192.159 151.944 192.609 159.695C193.059 167.447 193.959 182.704 195.322 193.901C197.51 211.866 200.34 220.082 200.64 223.322C201.54 227.277 202.159 233.779 202.159 239.684C202.159 241.299 202.159 240.107 202.159 238.879" stroke="#188B09" stroke-width="3" stroke-linecap="round"/>
<path d="M212.159 147.467C212.159 149.846 212.741 154.603 213.186 160.936C213.65 167.522 214.506 173.717 214.951 178.732C215.461 184.472 216.27 191.627 218.181 195.453C219.887 198.869 220.964 204.265 222.01 210.254C222.728 214.367 223.629 218.134 224.361 222.075C225.094 229.841 226.276 234.612 227.009 238.316C227.159 239.627 227.159 241.518 227.159 243.467" stroke="#188B09" stroke-width="3" stroke-linecap="round"/>
<path d="M2.14507 237.46C2.14031 237.425 2.13555 237.391 2.1308 237.356C1.94908 236.029 1.96479 236.076 2.14507 237.46C2.54629 240.539 3.76259 250.243 5.43173 266.175C8.31566 293.702 11.9684 296.359 13.2413 300.066C14.2941 303.132 14.2687 306.833 14.9051 311.809C15.7253 318.222 15.7946 325.986 18.3364 335.149C19.9126 340.831 22.9025 348.361 25.8546 355.308C31.4593 368.497 36.9957 377.62 40.3158 382.727C43.3925 387.459 45.1847 390.671 46.5956 393.742C46.9549 394.524 47.485 395.271 47.6192 394.903C50.1911 387.849 47.7457 376.654 47.7534 367.472C47.7562 364.139 46.9943 359.847 46.8601 352.317C46.5366 334.163 47.4927 321.946 48.2556 318.763C49.3339 314.266 52.331 307.155 56.5367 298.482C64.5892 281.878 77.8797 274.659 81.9857 272.612C86.1169 270.552 90.4086 270.058 95.1434 268.901C101.998 267.225 108.305 265.719 111.637 264.047C117.854 260.928 124.162 251.917 126.845 248.719C128.861 246.317 130.211 244.593 130.776 243.496C130.703 243.443 130.631 243.388 130.56 243.333C130.066 242.946 131.075 242.293 131.074 242.578C131.073 242.809 130.972 243.115 130.776 243.496C130.211 244.593 128.861 246.317 126.845 248.719C124.162 251.917 117.854 260.928 111.637 264.047C108.305 265.719 101.998 267.225 95.1434 268.901C90.4086 270.058 86.1169 270.552 81.9857 272.612C77.8797 274.659 64.5892 281.878 56.5367 298.482C52.331 307.155 49.3339 314.266 48.2556 318.763C47.4927 321.946 46.5366 334.163 46.8601 352.317C46.9943 359.847 47.7562 364.139 47.7534 367.472C47.7457 376.654 50.1911 387.849 47.6192 394.903C47.485 395.271 46.9549 394.524 46.5956 393.742C45.1847 390.671 43.3925 387.459 40.3158 382.727C36.9957 377.62 31.4593 368.497 25.8546 355.308C22.9025 348.361 19.9126 340.831 18.3364 335.149C15.7946 325.986 15.7253 318.222 14.9051 311.809C14.2687 306.833 14.2941 303.132 13.2413 300.066C11.9684 296.359 8.31566 293.702 5.43173 266.175C3.76259 250.243 2.54629 240.539 2.14507 237.46Z" fill="#BBC883" fill-opacity="0.8"/>
<path d="M189.091 231.199C188.585 231.199 188.079 231.199 178.456 228.542C168.834 225.885 150.109 220.571 137.553 216.695C119.037 210.979 112.169 208.196 110.256 208.322C106.863 208.547 102.984 211.002 98.1223 213.678C89.2451 218.565 77.2049 227.58 68.4791 232.337C61.491 236.148 42.7464 241.397 32.951 242.827C24.8269 244.013 19.1454 242.961 12.1256 243.973C8.45474 244.502 5.84195 243.981 4.43877 243.218C2.93414 242.4 2.51419 240.155 2.1308 237.356C1.54465 233.077 3.01259 243.084 5.43173 266.175C8.31566 293.702 11.9684 296.359 13.2413 300.066C14.2941 303.132 14.2687 306.833 14.9051 311.809C15.7253 318.222 15.7946 325.986 18.3364 335.149C19.9126 340.831 22.9025 348.361 25.8546 355.308C31.4593 368.497 36.9957 377.62 40.3158 382.727C43.3925 387.459 45.1847 390.671 46.5956 393.742C46.9549 394.524 47.485 395.271 47.6192 394.903C50.1911 387.849 47.7457 376.654 47.7534 367.472C47.7562 364.139 46.9943 359.847 46.8601 352.317C46.5366 334.163 47.4927 321.946 48.2556 318.763C49.3339 314.266 52.331 307.155 56.5367 298.482C64.5892 281.878 77.8797 274.659 81.9857 272.612C86.1169 270.552 90.4086 270.058 95.1434 268.901C101.998 267.225 108.305 265.719 111.637 264.047C117.854 260.928 124.162 251.917 126.845 248.719C129.563 245.482 131.07 243.475 131.074 242.578C131.075 242.293 130.066 242.946 130.56 243.333C136.414 247.916 147.149 244.74 152.904 245.127C158.43 245.499 167.561 246.779 182.014 247.427C187.81 247.687 193.401 247.301 197.514 245.775C200.975 244.491 203.645 241.688 206.079 239.004C206.719 238.36 207.479 237.854 208.249 237.214C209.02 236.574 209.779 235.815 209.794 235.799" stroke="#188B09" stroke-width="3" stroke-linecap="round"/>
<path d="M227.43 238.094C233.414 237.295 252.995 233.276 264.25 230.937C266.655 230.437 279.126 230.226 297.232 230.126C307.455 230.069 319.911 226.412 329.272 223.477C332.982 222.313 337.817 220.148 349.694 215.538C358.464 212.135 372.279 205.736 384.567 199.65C396.856 193.564 407.065 187.771 413.57 183.788C426.997 175.567 430.895 171.731 434.049 169.604C435.413 168.683 436.441 167.282 437.199 166.874C438.573 166.133 435.196 170.49 434.317 173.408C433.392 176.477 433.43 185.762 432.434 200.658C430.929 223.16 423.892 226.775 421.489 228.812C420.381 229.751 420.353 225.995 419.353 225.986C411.756 225.917 412.309 233.046 405.326 237.546C399.039 241.598 387.386 249.437 380.734 253.75C374.082 258.063 372.837 258.662 365.473 261.467C358.108 264.273 344.661 269.266 336.116 272.638C324.17 277.35 320.251 279.453 316.255 280.755C307.201 283.703 297.145 285.912 290.109 285.612C282.382 285.283 278.5 279.871 274.859 277.247C270.151 273.854 266.683 270.997 262.914 266.763C257.316 260.476 254.353 258.686 249.965 253.956C245.344 250.043 240.778 246.98 237.764 245.669C236.492 245.158 235.745 244.958 233.466 244.752" stroke="#188B09" stroke-width="3" stroke-linecap="round"/>
<path d="M124.845 27.8826C125.19 27.8093 125.597 27.8052 126.058 27.8573C125.937 27.3617 125.796 27.0176 125.588 26.6849C124.564 26.3866 122.907 26.3499 122.594 26.2455C122.09 26.0774 124.306 26.5888 125.344 26.3345C125.015 25.8984 124.618 25.466 124.402 25.0281C124.146 24.5075 124.146 23.9946 124.41 24.0024C124.674 24.0101 125.187 24.523 125.444 25.0437C125.7 25.5643 125.771 26.2289 125.348 26.3336C125.346 26.3339 125.345 26.3342 125.344 26.3345C125.406 26.417 125.466 26.4995 125.521 26.5823C125.544 26.6164 125.566 26.6506 125.588 26.6849C126.266 26.8823 126.666 27.1944 126.215 27.7168C126.176 27.7623 126.132 27.8104 126.083 27.8602C126.077 27.867 126.07 27.8739 126.063 27.8808C125.464 28.4891 124.283 29.3253 124.06 28.8306C123.98 28.6519 124.275 28.0037 124.845 27.8826Z" fill="#BBC883" fill-opacity="0.8"/>
<path d="M176.987 112.068C176.987 110.7 176.987 108.628 175.021 99.4614C173.334 91.597 169.123 77.4728 165.131 66.6585C161.14 55.8443 157.208 48.835 154.84 44.7969C150.997 38.2415 148.846 36.4433 146.948 34.454C144.955 32.366 141.946 30.9106 138.835 30.6489C135.879 30.4004 132.445 29.8745 130.37 29.0974C128.018 28.2165 126.052 27.6261 124.845 27.8826C124.275 28.0037 123.98 28.6519 124.06 28.8306C124.303 29.3717 125.695 28.3203 126.215 27.7168C127.347 26.4055 123.115 26.4191 122.594 26.2455C122.089 26.0772 124.312 26.59 125.348 26.3336C125.771 26.2289 125.7 25.5643 125.444 25.0437C125.187 24.523 124.674 24.0101 124.41 24.0024C124.146 23.9946 124.146 24.5075 124.402 25.0281C124.659 25.5488 125.172 26.0616 125.521 26.5823C125.871 27.1029 126.042 27.6158 126.218 28.6622" stroke="#EF6BCC" stroke-width="3" stroke-linecap="round"/>
<path d="M226.196 23.404C225.972 23.6893 225.687 24.0047 225.352 24.3474C224.142 23.9412 223.48 23.482 224.401 23.1347C224.697 23.0233 225.69 23.156 226.427 23.0771C227.124 21.9793 227.238 20.6617 227.238 20.0315C227.238 19.3581 227.579 21.9224 227.243 22.6995C227.142 22.9323 226.821 23.035 226.427 23.0771C226.356 23.1887 226.28 23.298 226.196 23.404Z" fill="#BBC883" fill-opacity="0.8"/>
<path d="M187.866 108.96C188.721 105.877 190.798 97.9357 191.404 94.3793C192.089 90.3608 193.212 81.3893 195.45 72.3933C197.895 62.5645 201.843 54.4145 204.679 49.1666C208.518 42.0633 213.577 36.2827 216.682 32.7445C220.115 28.8341 224.637 25.3882 226.196 23.404C227.1 22.2542 227.238 20.7257 227.238 20.0315C227.238 19.3581 227.579 21.9224 227.243 22.6995C226.953 23.3677 224.854 22.9637 224.401 23.1347C222.243 23.9487 228.781 25.3778 230.685 25.2975C231.035 25.0411 231.206 24.5282 231.037 24.1785C230.869 23.8288 230.356 23.6579 229.828 23.4818" stroke="#EF6BCC" stroke-width="3" stroke-linecap="round"/>
<path d="M199.725 8.14908C199.527 7.84218 199.233 7.60424 199.18 7.59836C199.343 7.79051 199.526 7.97413 199.725 8.14908Z" fill="#BBC883" fill-opacity="0.8"/>
<path d="M183.721 91.8642C184.063 90.3204 185.612 84.6478 187.506 71.6007C188.872 62.1855 189.741 46.9286 190.785 36.9536C192.281 22.6568 193.906 17.6174 194.681 16.2394C196.4 13.181 198.911 11.0589 199.866 8.89866C200.114 8.33953 199.273 7.60872 199.18 7.59836C200.636 9.31828 203.739 10.3544 205.477 10.616C205.485 10.7015 204.972 10.8724 203.407 12.0847" stroke="#EF6BCC" stroke-width="3" stroke-linecap="round"/>
<path d="M172.84 6.55709C172.32 6.21044 170.628 1.58659 170.339 3.2739C170.368 3.33506 170.399 3.39763 170.431 3.46175C171.293 5.0133 172.335 6.22036 172.84 6.55709Z" fill="#BBC883" fill-opacity="0.8"/>
<path d="M181.131 70.1061C181.131 69.7642 181.131 66.5109 179.934 55.5231C179.068 47.5695 176.344 34.9617 174.94 28.0173C172.892 17.8827 171.635 11.7738 171.12 6.76431C170.953 5.14556 170.263 5.51581 169.742 6.20482C169.221 6.89382 168.708 7.91956 168.53 8.19153C167.772 9.34479 170.076 4.84235 170.338 3.28043C170.623 1.57471 172.319 6.21 172.84 6.55709C172.335 6.22036 171.293 5.0133 170.431 3.46175C170.081 2.76497 169.91 2.2521 169.734 1.72369" stroke="#EF6BCC" stroke-width="3" stroke-linecap="round"/>
<path d="M200.488 252.406C197.305 257.61 191.462 268.132 188.257 271.635C185.047 275.142 180.686 278.33 176.886 279.664C172.707 281.131 163.806 282.126 157.797 283.451C149.939 285.184 145.701 289.421 138.997 294.66C134.252 298.368 130.237 303.118 128.19 306.621C126.369 309.738 125.566 313.614 123.673 318.568C120.645 326.491 122.645 339.276 123.078 341.169C124.124 345.742 134.575 341.917 140.986 339.591C148.61 336.824 153.24 332.593 159.647 326.628C163.826 322.737 167.532 318.319 169.141 314.519C169.524 313.615 170.156 312.774 170.453 311.895C170.75 311.016 170.75 310.15 170.173 309.704C169.596 309.258 168.441 309.258 167.414 310.268C164.865 312.773 164.628 319.71 165.061 326.703C165.228 329.396 166.36 330.232 167.239 330.822C168.861 331.912 171.319 331.999 174.083 331.71C179.148 331.181 181.526 325.894 186.621 320.213C189.809 316.658 190.57 311.899 191.016 308.829C191.105 308.217 189.433 308.383 188.261 309.538C182.767 314.95 183.87 321.468 184.303 326.86C184.461 328.83 185.602 329.077 187.491 329.226C192.254 329.601 196.395 328.797 198.577 327.346C203.302 324.202 207.748 318.617 212.427 312.197C215.822 307.539 218.838 301.421 222.197 296.593C225.745 291.493 226.43 287.409 227.598 282.454C227.876 281.274 228.18 280.412 227.462 280.688C220.837 283.233 218.873 293.759 216.096 304.408C214.111 312.022 213.031 316.517 211.282 321.341C209.728 325.624 210.109 333.704 210.831 340.264C211.087 342.594 212.996 342.494 215.615 342.061C227.957 340.022 232.255 333.765 235.317 329.974C237.152 327.7 237.223 322.413 236.791 317.165C236.64 315.335 235.492 315.38 234.613 315.236C232.839 314.945 231.11 314.794 229.365 315.52C224.871 317.39 221.497 323.812 218.427 328.041C217.289 329.608 217.981 333.101 218.992 334.736C220.801 337.666 225.836 336.372 228.892 336.083C231.238 335.862 232.842 334.045 234.442 332.738C237.547 330.201 237.223 324.162 238.671 320.344C240.431 315.703 248.279 318.879 253.82 317.864C256.728 316.85 259.081 316.255 260.826 316.111C261.705 315.966 262.571 315.678 265.212 313.631" stroke="#9D6520" stroke-width="3" stroke-linecap="round"/>
<path d="M175.998 264.651C178.316 268.412 182.401 276.004 185.025 280.521C188.199 285.987 192.022 288.249 195.227 291.463C198.091 294.334 202.22 295.841 205.867 297.734C210.612 300.198 216.792 301.089 221.462 301.53C227.307 302.083 233.707 302.838 248.1 302.991C253.922 303.053 256.746 299.654 259.807 298.329C261.119 297.03 262.579 295.85 264.036 294.979C264.626 294.398 264.915 293.532 266.087 291.765" stroke="#9D6520" stroke-width="3" stroke-linecap="round"/>
<path d="M226.728 255.905C228.171 261.686 234.565 279.153 237.508 286.062C239.965 291.832 242.454 296.978 247.391 305.414C256.059 320.223 266.358 332.83 269.563 339.822C272.267 345.721 272.209 358.151 271.339 366.674C270.898 370.992 266.402 376.571 261.731 380.821C258.197 384.038 254.725 383.017 252.98 383.31C247.965 384.152 241.632 374.296 237.67 369.626C234.795 366.238 236.349 361.177 239.104 354.766C240.728 350.986 247.089 346.894 257.406 342.092C269.743 338.156 281.489 335.795 291.521 334.343C296.647 333.468 301.842 332.314 308.944 331.124" stroke="#9D6520" stroke-width="3" stroke-linecap="round"/>
</g>
</svg>
